<svg width="24" height="24" viewBox="0 0 24 24" fill="none" xmlns="http://www.w3.org/2000/svg">
<path d="M12.0827 7.0131C10.5146 7.0131 9.44934 8.03198 9.44934 9.30749C9.44934 9.95099 9.59106 10.6539 10.158 11.1499C10.7249 11.6459 11.4114 11.7724 12.0827 12.0002C12.709 12.2128 13.2759 12.3545 13.8428 12.7797C14.4097 13.2049 14.6931 13.766 14.6931 14.4095C14.6931 16.0393 13.6417 16.9874 12.0827 16.9874M12.0827 7.0131L12.0796 6.04785M12.0827 7.0131C13.455 7.0131 14.6454 7.89026 14.6454 9.30749M9.30762 14.0916C9.30762 16.183 10.5237 16.9873 12.0827 16.9874M12.0827 16.9874L12.0796 17.9526" stroke="white" stroke-linecap="round"/>
<circle cx="12" cy="12" r="10" stroke="white"/>
</svg>
