<svg width="24" height="24" viewBox="0 0 24 24" fill="none" xmlns="http://www.w3.org/2000/svg">
<path d="M22.5 7.95238C22.5 8.22852 22.2761 8.45238 22 8.45238C21.7239 8.45238 21.5 8.22852 21.5 7.95238L22.5 7.95238ZM21.5 16.0476C21.5 15.7715 21.7239 15.5476 22 15.5476C22.2761 15.5476 22.5 15.7715 22.5 16.0476L21.5 16.0476ZM18 2.5L6 2.50001L6 1.50001L18 1.5L18 2.5ZM2.50001 6.00001L2.50001 18L1.50001 18L1.50001 6.00001L2.50001 6.00001ZM6.00001 21.5L18 21.5L18 22.5L6.00001 22.5L6.00001 21.5ZM21.5 7.95238L21.5 6L22.5 6L22.5 7.95238L21.5 7.95238ZM21.5 18L21.5 16.0476L22.5 16.0476L22.5 18L21.5 18ZM18 21.5C19.933 21.5 21.5 19.933 21.5 18L22.5 18C22.5 20.4853 20.4853 22.5 18 22.5L18 21.5ZM2.50001 18C2.50001 19.933 4.06701 21.5 6.00001 21.5L6.00001 22.5C3.51473 22.5 1.50001 20.4853 1.50001 18L2.50001 18ZM6 2.50001C4.06701 2.50001 2.5 4.06701 2.50001 6.00001L1.50001 6.00001C1.5 3.51473 3.51472 1.50001 6 1.50001L6 2.50001ZM18 1.5C20.4853 1.5 22.5 3.51472 22.5 6L21.5 6C21.5 4.067 19.933 2.5 18 2.5L18 1.5Z" fill="#00377D"/>
<path fill-rule="evenodd" clip-rule="evenodd" d="M14.3104 5.87171C14.1489 5.6477 13.8364 5.59702 13.6124 5.75851L5.52425 11.5893C5.50547 11.6023 5.48747 11.6167 5.4704 11.6325C5.36312 11.7313 5.30745 11.8691 5.30957 12.008C5.31057 12.0737 5.32449 12.1396 5.35196 12.2017C5.3801 12.2657 5.42194 12.3245 5.4766 12.3731C5.49429 12.3889 5.51293 12.4033 5.53236 12.4163L13.6206 18.0041C13.8478 18.1611 14.1592 18.1041 14.3162 17.8769C14.4731 17.6497 14.4162 17.3383 14.189 17.1814L7.41293 12.5L22 12.5C22.2761 12.5 22.5 12.2762 22.5 12C22.5 11.7239 22.2761 11.5 22 11.5L7.35804 11.5L14.1972 6.56969C14.4212 6.40821 14.4719 6.09571 14.3104 5.87171Z" fill="#00377D"/>
</svg>
