<svg width="24" height="24" viewBox="0 0 24 24" fill="none" xmlns="http://www.w3.org/2000/svg">
<path fill-rule="evenodd" clip-rule="evenodd" d="M15.391 19.1295H18.7688C19.3616 19.1284 19.9297 18.8828 20.3481 18.4466C20.7665 18.0105 21.001 17.4195 21 16.8038C21.0024 16.0347 20.6334 15.3156 20.0175 14.8888C19.6182 14.6123 18.6788 13.4861 18.6788 9.19658C18.7464 5.2945 15.7575 2.07343 12.0009 2C8.24719 2.06459 5.25424 5.27715 5.31528 9.17625C5.31528 13.6487 4.30147 14.657 3.98049 14.8685C3.1691 15.4391 2.81107 16.4928 3.09791 17.466C3.38474 18.4392 4.2493 19.1041 5.22916 19.1051L8.98845 19.1146C9.21284 20.7432 10.5593 21.9959 12.1888 22C13.8149 21.998 15.1603 20.7523 15.391 19.1295ZM9.93043 19.117C10.0376 19.8028 10.4307 20.4153 11.0186 20.7791C11.7408 21.2261 12.6407 21.2261 13.3629 20.7791C13.9475 20.4173 14.3396 19.8097 14.4493 19.1285L9.93043 19.117ZM12.0009 3.00021C8.78477 3.07358 6.22958 5.83124 6.28203 9.1722C6.28203 13.5918 5.32302 15.1572 4.52059 15.6776C4.04484 16.0032 3.83354 16.6162 4.00224 17.1815C4.17094 17.7467 4.67901 18.1281 5.24865 18.1171H9.16298L18.7883 18.1415C19.4939 18.1327 20.0637 17.5408 20.0722 16.8079C20.0773 16.366 19.8647 15.9519 19.5085 15.7101C18.7257 15.1409 17.751 13.5511 17.751 9.20473C17.8078 5.84404 15.2361 3.06916 12.0009 3.00021Z" fill="#00377D"/>
</svg>
