<svg width="50" height="50" viewBox="0 0 50 50" fill="none" xmlns="http://www.w3.org/2000/svg">
<path fill-rule="evenodd" clip-rule="evenodd" d="M25.9605 6.79203C25.3459 6.58625 24.6802 6.58625 24.0662 6.79203L7.39571 12.4315L24.998 18.3492L28.252 17.261L42.5927 12.4324L25.9605 6.79203ZM45.9982 12.4177C45.9906 12.0763 45.7684 11.774 45.4411 11.6633L26.4785 5.24036C25.5191 4.91988 24.48 4.91988 23.5213 5.24036L4.67277 11.6247C4.55693 11.6464 4.44567 11.6934 4.34751 11.7644C4.1285 11.9199 3.99911 12.171 4.00001 12.4376C4 12.4382 4 12.4387 4 12.4392C4 12.4412 4 12.4432 4.00001 12.4452V37.4023C4.00001 37.7511 4.22486 38.0608 4.55874 38.1714L24.7342 44.9588C24.7889 44.976 24.8454 44.9877 24.9024 44.9941C24.9262 44.9969 24.9503 44.9987 24.9744 44.9994C24.9829 44.9997 24.9914 44.9998 24.9999 44.9999C25.1378 45.0025 25.2733 44.9719 25.3951 44.9111L45.4411 38.1719C45.7634 38.0653 45.9855 37.7725 45.9998 37.4365V12.4732C45.9999 12.4546 45.9994 12.4361 45.9982 12.4177ZM25.838 19.801L44.3507 13.575V36.8156L25.838 43.0383V19.801ZM5.6626 13.5794L24.1755 19.8012V43.0383L5.6626 36.8156V13.5794Z" fill="#00C8FF"/>
<path fill-rule="evenodd" clip-rule="evenodd" d="M29.5382 11.8863V11.8188V11.7716V11.7311L29.4905 11.6906L29.4224 11.6569C29.2221 11.5658 29.0081 11.5064 28.7887 11.4814C28.4705 11.4349 28.1496 11.4059 27.828 11.3937C27.6515 11.3937 27.4669 11.3857 27.2781 11.3774C27.0806 11.3688 26.8785 11.36 26.6765 11.36H25.4841H25.3955C24.7164 11.36 24.132 11.4069 23.6289 11.4473L23.6239 11.4477C23.1197 11.4882 22.6904 11.5287 22.3497 11.5827C22.0867 11.6157 21.8285 11.6791 21.5798 11.7716C21.4095 11.8458 21.3345 11.9267 21.3413 12.0144V12.0819L21.4026 12.878C21.4067 12.9435 21.3876 13.0076 21.3481 13.0602C21.3018 13.1216 21.2439 13.1742 21.1778 13.2154C21.0933 13.2606 21.004 13.2963 20.912 13.3233C20.8003 13.3496 20.6865 13.3652 20.5714 13.3706L15.9857 13.5055H15.7881H15.6042L15.4611 13.4178L15.3316 13.3503C15.3037 13.3314 15.2785 13.3085 15.2567 13.2829C15.2342 13.264 15.2158 13.241 15.2022 13.2154C15.1851 13.1911 15.1735 13.1634 15.1681 13.1344C15.1647 13.1074 15.1647 13.0804 15.1681 13.0535L15.2498 12.2506V12.1561C15.2642 12.0785 15.2941 12.005 15.3384 11.9402C15.4188 11.8303 15.5101 11.7284 15.611 11.6366C15.7609 11.5071 15.923 11.3924 16.0947 11.2925C16.3278 11.1509 16.5717 11.0267 16.8238 10.9215H16.9124L17.1509 10.8338L17.5733 10.6853L18.2002 10.4829C18.609 10.375 19.0655 10.2738 19.5629 10.1861C20.0603 10.0983 20.5986 10.0241 21.171 9.95666C21.7433 9.8892 22.3497 9.83522 22.9902 9.79474C23.6307 9.75426 24.3053 9.72727 25.0344 9.70703H27.4532C28.1167 9.70703 28.7382 9.75895 29.327 9.80814C29.4094 9.81502 29.4912 9.82185 29.5723 9.82847C30.2332 9.88245 30.8533 9.9769 31.4256 10.0781C31.9598 10.1692 32.4879 10.2933 33.0064 10.4492C33.0996 10.4492 33.1929 10.4882 33.2801 10.5246L33.2801 10.5247C33.3077 10.5362 33.3346 10.5474 33.3607 10.5571L33.681 10.6718L33.9671 10.7798L34.1784 10.8742C34.3283 10.9444 34.4741 11.0233 34.6144 11.1104C34.7241 11.1745 34.8284 11.2467 34.9279 11.3263C35.0021 11.3802 35.0703 11.441 35.1323 11.5084C35.1752 11.5489 35.21 11.5968 35.2345 11.6501L35.2754 11.7243L35.6501 12.4935C35.6699 12.5481 35.6699 12.6075 35.6501 12.6621C35.6345 12.7235 35.599 12.7782 35.5479 12.8173C35.4832 12.8612 35.4123 12.8956 35.3367 12.9185C35.2365 12.9462 35.1336 12.9617 35.0301 12.9658L30.7647 13.0872H30.5739L30.3831 13.0535L30.2128 13.0062L30.0629 12.9388L29.9607 12.878C29.9327 12.8592 29.9075 12.8362 29.8857 12.8106C29.8598 12.7903 29.8387 12.7654 29.8244 12.7364C29.8053 12.7121 29.7917 12.6844 29.7835 12.6554L29.5382 11.8863ZM20.7501 33.1269V25.6251C20.7501 25.4004 20.6016 25.1677 20.4183 25.1056L9.88835 21.5514C9.81408 21.5271 9.74458 21.5352 9.69076 21.5736C9.62126 21.6222 9.58105 21.7173 9.58105 21.8327V29.406C9.58174 29.6327 9.73096 29.8668 9.91356 29.9276L20.4919 33.4177C20.5511 33.4251 20.6097 33.4103 20.6554 33.3711C20.7167 33.3192 20.7501 33.2328 20.7501 33.1269ZM9.67451 20.2237L20.6828 23.95C21.3791 24.1855 21.9453 25.0295 21.9453 25.831V33.6668C21.944 34.081 21.7893 34.4285 21.5208 34.6208C21.373 34.7267 21.1972 34.7807 21.0085 34.7807C20.896 34.7807 20.7782 34.7618 20.6589 34.7227L16.9264 33.4934V33.855C16.9264 33.9785 16.8793 34.0831 16.7969 34.1424C16.7499 34.1755 16.694 34.193 16.6347 34.193C16.5993 34.193 16.5625 34.1863 16.5243 34.1741L13.7825 33.2734C13.5747 33.2046 13.4057 32.9584 13.4057 32.7236V32.3336L9.64862 31.0962C8.9543 30.8655 8.38808 30.0194 8.38672 29.2098V21.2843C8.38672 20.862 8.54275 20.5098 8.81462 20.3175C9.05174 20.1488 9.35699 20.1151 9.67451 20.2237ZM19.1577 35.4115L11.2674 32.8875C11.1475 32.8483 11.033 32.8639 10.9431 32.9286C10.8443 33.0002 10.7877 33.1277 10.7891 33.2788C10.7904 33.5655 10.9976 33.8637 11.2497 33.944L19.14 36.462C19.1836 36.4761 19.2272 36.4829 19.2688 36.4829C19.341 36.4829 19.4084 36.462 19.465 36.4208C19.5638 36.3493 19.619 36.2224 19.6183 36.0733C19.6163 35.7893 19.4098 35.4924 19.1577 35.4115ZM31.1936 30.5872C32.1311 28.9808 33.5218 27.7725 35.0072 27.2766C36.5355 26.7672 37.9759 27.0688 38.9578 28.1051C39.152 28.2987 39.2051 28.6246 39.0907 28.9505C38.983 29.2561 38.7479 29.501 38.4774 29.5907C38.2389 29.669 37.9984 29.6177 37.8335 29.4538C37.1269 28.7474 36.2098 28.5558 35.1803 28.8978C34.1262 29.2487 33.1368 30.1177 32.3969 31.3449H32.3962C32.2381 31.6067 31.9901 31.7807 31.7339 31.8098C31.708 31.8131 31.6821 31.8145 31.6562 31.8145C31.3905 31.8145 31.1683 31.6532 31.0777 31.3888C30.9946 31.1445 31.0375 30.845 31.1936 30.5872ZM34.516 31.8806C34.0922 32.2206 33.8176 32.7806 33.8169 33.3082C33.8183 33.7042 33.9736 34.0429 34.2448 34.2372C34.4029 34.3513 34.5889 34.4086 34.7872 34.4086C34.9003 34.4086 35.0182 34.3897 35.1367 34.3513C35.6089 34.1974 36.0279 33.7467 36.2044 33.2029C36.3898 32.6335 36.2746 32.0728 35.9114 31.776C35.5367 31.4697 34.9759 31.5122 34.516 31.8806ZM35.0054 22.6421C37.568 21.7785 40.0393 22.3041 41.7864 24.0852C42.0494 24.3713 42.0283 24.8632 41.7435 25.2363C41.5792 25.4508 41.3544 25.5844 41.1261 25.6019C40.9497 25.6154 40.7834 25.5574 40.6594 25.4373C39.2251 23.9726 37.2805 23.5576 35.1791 24.2654C33.0376 24.986 31.0452 26.7482 29.5687 29.2263V29.227C29.4426 29.4382 29.2525 29.5974 29.0488 29.6656C28.9745 29.6905 28.9003 29.702 28.828 29.702C28.5923 29.702 28.3811 29.5738 28.2761 29.3505C28.1589 29.1008 28.1903 28.7689 28.3586 28.4855C30.0654 25.6215 32.4884 23.4922 35.0054 22.6421Z" fill="#00377D"/>
</svg>
