<svg width="24" height="24" viewBox="0 0 24 24" fill="none" xmlns="http://www.w3.org/2000/svg">
<path fill-rule="evenodd" clip-rule="evenodd" d="M4.83457 10.8355L5.91657 9.60504C6.03292 9.48277 6.20381 9.43366 6.36487 9.47623C6.52593 9.51879 6.6527 9.64656 6.69741 9.8114C6.74213 9.97624 6.698 10.1531 6.58165 10.2754L4.55889 12.5508C4.46868 12.6457 4.34381 12.6971 4.21489 12.6924C4.08018 12.6875 3.95437 12.6219 3.87088 12.513L2.1004 10.2376C1.94322 10.0352 1.97392 9.74025 2.1692 9.57672C2.26396 9.49752 2.38548 9.46046 2.50687 9.47375C2.62825 9.48704 2.73948 9.54958 2.81593 9.64753L3.90118 11.0384C4.11075 7.01309 7.05719 3.6637 10.9755 3.08644C15.0436 2.48712 18.9206 5.05837 20.0713 9.11877C20.1054 9.23897 20.0916 9.36816 20.0331 9.47794C19.9747 9.58772 19.8762 9.66909 19.7594 9.70414C19.5162 9.77714 19.2616 9.63342 19.1907 9.38313C18.1678 5.77379 14.7214 3.48823 11.1053 4.0211C7.70511 4.52214 5.12838 7.3715 4.83457 10.8355ZM21.1859 14.5241C21.2702 14.6313 21.3959 14.6951 21.5299 14.6988C21.6358 14.7069 21.7412 14.6768 21.828 14.6138C22.0247 14.4517 22.0575 14.1566 21.9014 13.9529L20.1263 11.6775C20.0428 11.5686 19.917 11.503 19.7823 11.4982C19.6481 11.4944 19.519 11.5513 19.4291 11.6539L17.4064 13.9293C17.2354 14.1223 17.2487 14.4213 17.4362 14.5973C17.6236 14.7733 17.9142 14.7596 18.0852 14.5666L19.2898 13.1968C18.6063 16.2707 16.1162 18.6199 13.0192 19.006C9.65791 19.4251 6.45434 17.4232 5.2652 14.1604C5.22203 14.0434 5.13543 13.9487 5.02446 13.8974C4.9135 13.846 4.78725 13.8422 4.67351 13.8866C4.43844 13.981 4.32162 14.2531 4.41207 14.4956C5.63356 17.8016 8.70878 19.9904 12.1453 20C16.0699 19.9992 19.4124 17.1642 20.2171 13.2826L21.1859 14.5241Z" fill="white"/>
</svg>
