<svg width="50" height="50" viewBox="0 0 50 50" fill="none" xmlns="http://www.w3.org/2000/svg">
<path fill-rule="evenodd" clip-rule="evenodd" d="M39.5668 22.4536C39.1618 22.4544 38.7998 22.2015 38.6615 21.8211C37.2756 18.5575 34.0273 16.4784 30.481 16.5851C26.9376 16.4817 23.6933 18.5603 22.3085 21.8211C22.2041 22.1674 21.9154 22.4267 21.5598 22.4936C21.2041 22.5606 20.8408 22.424 20.6174 22.1395C20.3941 21.855 20.348 21.4698 20.4978 21.1406C22.1662 17.1254 26.1313 14.5465 30.481 14.6476C34.8335 14.5431 38.8027 17.1226 40.4722 21.1406C40.662 21.6403 40.4111 22.1991 39.9114 22.3896C39.8009 22.4301 39.6845 22.4517 39.5668 22.4536ZM31.0436 32.3267C27.1401 32.2936 23.2331 33.052 19.5684 34.5998C22.357 37.7682 26.3867 39.568 30.6091 39.5311C34.8315 39.4942 38.8291 37.6243 41.5619 34.4077C38.9251 33.3479 36.1719 32.6931 33.3916 32.4424L38.6695 25.5921C38.9187 25.3226 38.9942 24.9355 38.8644 24.5922C38.7346 24.2489 38.4219 24.0084 38.0565 23.9709C37.6912 23.9334 37.336 24.1054 37.1392 24.4152L31.0436 32.3267Z" fill="#00C8FF"/>
<path fill-rule="evenodd" clip-rule="evenodd" d="M18.446 40.4995H30.3643L30.4076 40.4998L30.4804 40.5C30.5217 40.5 30.5631 40.4998 30.6043 40.4995H30.6085L30.629 40.4993C39.1287 40.4196 45.9956 33.5121 46 25C46 16.4931 39.1418 9.58669 30.6485 9.50081C30.6353 9.50027 30.6219 9.5 30.6085 9.5H30.4911H30.4856H18.446C17.9106 9.5 17.4765 9.93372 17.4765 10.4687C17.4765 11.0038 17.9106 11.4375 18.446 11.4375H22.973C20.6697 12.7146 18.7259 14.5606 17.3317 16.7856H10.9947C10.4593 16.7856 10.0252 17.2194 10.0252 17.7544C10.0252 18.2894 10.4593 18.7231 10.9947 18.7231H16.3013C15.4505 20.6404 14.9775 22.7624 14.9767 24.9947C14.976 27.2279 15.4479 29.351 16.2981 31.2695H10.9947C10.4593 31.2695 10.0252 31.7033 10.0252 32.2383C10.0252 32.7733 10.4593 33.207 10.9947 33.207H17.3271C18.7214 35.435 20.6666 37.2835 22.9721 38.562H18.446C17.9106 38.562 17.4765 38.9957 17.4765 39.5308C17.4765 40.0658 17.9106 40.4995 18.446 40.4995ZM44.1011 25C44.101 32.4582 38.076 38.5116 30.6221 38.5621L30.6085 38.562H30.4212C22.9881 38.5047 16.9733 32.4749 16.9558 25.0319C16.9381 17.5478 22.9907 11.464 30.4803 11.4375C37.9841 11.4375 44.0746 17.5019 44.1011 25ZM11.5074 25.9692H4.96948C4.43405 25.9692 4 25.5355 4 25.0005C4 24.4655 4.43405 24.0317 4.96948 24.0317H11.5074C12.0429 24.0317 12.4769 24.4655 12.4769 25.0005C12.4769 25.5355 12.0429 25.9692 11.5074 25.9692Z" fill="#00377D"/>
</svg>
