<svg width="24" height="24" viewBox="0 0 24 24" fill="none" xmlns="http://www.w3.org/2000/svg">
<path d="M4 12.0001V20.0001H9V12.0001" stroke="#00377D" stroke-linecap="square" stroke-linejoin="round"/>
<path d="M4 12.0001V20.0001H20V12.0001" stroke="#00377D" stroke-linecap="square" stroke-linejoin="round"/>
<path d="M2.47607 20H21.5237" stroke="#00377D" stroke-linecap="round" stroke-linejoin="round"/>
<path d="M18.0248 10.5205C18.0248 12.4932 22 12.4932 22 10.5205V8H2V10.5205C2 12.4932 6.09938 12.4932 6.09938 10.5205M18.0248 10.5205C18.0248 10.3066 18.0248 9.9726 18.0248 9.9726M18.0248 10.5205C18.0248 12.4932 14.0497 12.4932 14.0497 10.5205M14.0497 10.5205V9.9726M14.0497 10.5205C14.0497 12.4932 10.0745 12.4932 10.0745 10.5205M10.0745 10.5205V9.9726M10.0745 10.5205C10.0745 12.4932 6.09938 12.4932 6.09938 10.5205M6.09938 10.5205V9.9726" stroke="#00C8FF" stroke-linecap="round" stroke-linejoin="round"/>
<path d="M2 7.42566V8H22V7.4432C22 7.10944 21.8335 6.79768 21.5561 6.61208L17.9046 4.16888C17.74 4.05878 17.5465 4 17.3485 4H6.41815C6.21077 4 6.00853 4.06447 5.83942 4.18448L2.42127 6.61014C2.15701 6.79767 2 7.10162 2 7.42566Z" stroke="#00C8FF" stroke-linecap="round" stroke-linejoin="round"/>
</svg>
