<svg width="24" height="24" viewBox="0 0 24 24" fill="none" xmlns="http://www.w3.org/2000/svg">
<path fill-rule="evenodd" clip-rule="evenodd" d="M9.72099 12.5297C7.82362 11.6604 6.5052 9.74103 6.5052 7.51291C6.5052 4.46821 8.96707 2 12.0039 2C15.0408 2 17.5027 4.46821 17.5027 7.51291C17.5027 8.97502 16.9233 10.3772 15.8921 11.4111C15.4221 11.8824 14.8756 12.2596 14.282 12.5305C17.4303 13.3325 19.9972 15.7608 20.9119 19.0033C21.1123 19.7097 20.9665 20.4695 20.5191 21.051C20.0683 21.6479 19.3649 21.9991 18.6181 22H5.38973C4.64015 22.0015 3.93334 21.6502 3.48088 21.051C3.03347 20.4695 2.88773 19.7097 3.08811 19.0033C4.0031 15.7598 6.57136 13.3309 9.72099 12.5297ZM12.0039 2.9884C10.1704 2.9884 8.51738 4.09599 7.81606 5.79453C7.11474 7.49307 7.50325 9.44792 8.80036 10.7472C10.0975 12.0466 12.0476 12.4344 13.7412 11.7298C15.4348 11.0252 16.5381 9.36699 16.5365 7.52867C16.5322 5.02141 14.5048 2.99057 12.0039 2.9884ZM12.0039 13.199C8.28668 13.2032 5.02289 15.6782 4.00718 19.2632C3.88803 19.6827 3.97397 20.134 4.23891 20.48C4.51171 20.8411 4.93794 21.0525 5.38972 21.051H18.6181C19.0699 21.0525 19.4961 20.8411 19.7689 20.48C20.0339 20.134 20.1198 19.6827 20.0007 19.2632C18.985 15.6782 15.7212 13.2032 12.0039 13.199Z" fill="white"/>
</svg>
