<svg width="24" height="24" viewBox="0 0 24 24" fill="none" xmlns="http://www.w3.org/2000/svg">
<path fill-rule="evenodd" clip-rule="evenodd" d="M3.10327 11.9999C5.89279 15.3277 8.96325 17.0838 12.0001 17.0838C15.037 17.0838 18.1074 15.3272 20.8965 11.9999C18.1074 8.67264 15.037 6.91602 12.0001 6.91602C8.96325 6.91602 5.89279 8.67218 3.10327 11.9999ZM12.0001 6C15.4357 6 18.8587 7.97878 21.8999 11.7215C22.0334 11.8859 22.0334 12.1136 21.8999 12.278C18.8587 16.0212 15.4357 18 12.0001 18C8.56442 18 5.14143 16.0212 2.0997 12.278C1.96677 12.1141 1.96677 11.8859 2.0997 11.7215C5.14094 7.97878 8.5649 6 12.0001 6ZM8.73755 12.0014C8.73755 13.6934 10.2012 15.0703 11.9999 15.0703C13.7985 15.0703 15.2622 13.6934 15.2622 12.0014C15.2622 10.3089 13.7985 8.93242 11.9999 8.93242C10.2012 8.93242 8.73755 10.3089 8.73755 12.0014ZM7.76367 12.0012C7.76367 9.80346 9.66409 8.01615 11.9998 8.01615C14.3355 8.01615 16.2359 9.80346 16.2359 12.0012C16.2359 14.1985 14.3355 15.9862 11.9998 15.9862C9.66409 15.9862 7.76367 14.1985 7.76367 12.0012Z" fill="white"/>
</svg>
